<?xml version="1.0" encoding="utf-8"?>
<!-- Generator: Adobe Illustrator 21.0.0, SVG Export Plug-In . SVG Version: 6.00 Build 0)  -->
<svg version="1.1" id="Calque_1" xmlns="http://www.w3.org/2000/svg" xmlns:xlink="http://www.w3.org/1999/xlink" x="0px" y="0px"
	 viewBox="0 0 48 60" style="enable-background:new 0 0 48 60;" xml:space="preserve">
<g>
	<g>
		<polygon points="6,37.7 6,46.4 9.4,46.4 9.4,35.1 6,35.1 		"/>
		<path d="M39.2,33.9c-0.9,0.4-4.5,1.9-6.7,2.9c-0.1,1.3-1.1,2.5-2.4,2.5l-10.4,0.5L19.6,39l7.7-0.3c0.8,0,4.5,0,4.5-1.9
			c0-1.9-3.2-1.7-4.2-1.7h-3.3c-2.6,0-3.5-1.5-6.3-1.5c-3.5,0-4.3,1.2-7.8,2.7v9c2.3-0.6,5,0.6,7.5,0.6c3.1,0,6.1-0.4,9.7-1.8
			c3.8-1.7,9.3-4.5,13.1-6.7C43.7,35.5,41.2,33,39.2,33.9z"/>
	</g>
	<path d="M32.6,25.2c-0.8,0-1.4,0.4-1.9,0.9c-1.1-0.7-2.1-1.3-3.2-2c0.6-1.4,0.5-2.7-0.4-4c0.8-0.8,1.6-1.5,2.5-2.3
		c0.6,0.4,1.1,0.5,1.7,0.2c0.9-0.3,1.4-1.3,1.2-2.3c-0.2-0.9-1.2-1.5-2.1-1.4c-1,0.2-1.7,1.1-1.6,2.1c0,0.2,0.1,0.5,0.2,0.7
		c0,0.1,0,0.2,0,0.2c-0.8,0.7-1.6,1.5-2.4,2.2c-0.8-0.7-1.6-1-2.6-1c-0.1-0.4-0.1-0.8-0.2-1.2c-0.1-0.4-0.1-0.8-0.2-1.2
		c0-0.2,0-0.2,0.2-0.3c0.8-0.4,1.2-1.3,1-2.2c-0.2-0.9-1.1-1.4-2-1.4c-0.9,0.1-1.7,0.9-1.7,1.8c0,0.9,0.7,1.8,1.6,1.9
		c0.1,0,0.1,0,0.2,0c0.1,0.9,0.2,1.7,0.4,2.6c-1.2,0.3-2,1-2.5,2.1c-1.1-0.4-2.1-0.7-3.1-1.1c-0.1-0.5-0.1-0.9-0.2-1.3
		c-0.4-1.2-1.6-2-2.9-1.7c-1.2,0.2-2.1,1.3-2,2.6c0.1,1.3,1,2.3,2.3,2.4c1,0.1,1.9-0.5,2.5-1.3c0,0,3,1.1,3.1,1.1
		c-0.3,1.6,0.2,2.9,1.5,4c0,0,0,0.1-0.1,0.1c-0.6,1.1-1.3,2.2-1.9,3.2C19.8,29,19.8,29,19.6,29c-0.6,0-1.1,0.3-1.3,0.9
		c-0.2,0.6,0.1,1.2,0.6,1.5c0.5,0.3,1.2,0.2,1.6-0.2c0.4-0.4,0.5-1.1,0.1-1.6c-0.1-0.1-0.1-0.1,0-0.3c0.6-1,2.1-3.6,2.1-3.6
		c1.3,0.4,2.7,0.8,4.5-1c0,0,2.2,1.4,3.2,2c-0.1,0.3-0.2,0.6-0.2,0.9c0,1.3,1.1,2.4,2.4,2.4c1.3,0,2.4-1.1,2.4-2.4
		S33.9,25.2,32.6,25.2z"/>
</g>
</svg>
