<?xml version="1.0" encoding="UTF-8"?>
<svg id="Calque_1" xmlns="http://www.w3.org/2000/svg" version="1.1" viewBox="0 0 1986.1 1000">
  <!-- Generator: Adobe Illustrator 29.3.1, SVG Export Plug-In . SVG Version: 2.1.0 Build 151)  -->
  <defs>
    <style>
      .st0 {
        fill: #003a69;
      }

      .st1 {
        isolation: isolate;
      }
    </style>
  </defs>
  <g>
    <path class="st0" d="M559.5,293.6c-6.3-5.3-12.8-10.3-19.6-14.9-43.4-30.1-96-47.6-152.7-47.6-148.3,0-268.9,120.7-268.9,268.9s120.6,269,268.9,269,269-120.7,269-269-37.6-157-96.7-206.4h0ZM387.2,239.6c55.4,0,106.8,17.3,149,46.8-47,95.4-126.8,164.8-183.9,233.7-.9,1.1-1.8,2.2-2.8,3.4-32.1-22.4-65.7-54.5-82.4-100.4-24.4-66.8-2.2-133.1,7-157.7,34.2-16.5,72.5-25.8,113-25.8h0ZM343.7,574.3c4.1-5.8,8.1-10.8,11.6-15.1,4,3.5,9,8.1,14.6,13.6,2.7,2.6,6.8,6.6,11.8,12.2,4.3,4.6,8.9,9.7,14.1,16.8,2.9,3.8,6.5,9.1,10.3,15.6-34.3,9.8-68.6,19.5-103,29.2,5.6-12.5,10.9-23,15.1-31.1,3.6-6.7,7.6-14.3,13.7-24,4.8-7.7,9-13.7,11.7-17.3h0ZM126.8,500c0-101.8,58.4-190,143.6-232.8-14.4,27.9-43,103-13,180,19.5,50.2,56,80.4,77.3,95-45.6,58.7-78.8,119.1-74.5,185.2-79.6-44.5-133.3-129.6-133.3-227.3h0ZM298.5,662.4l116.2-28.7c2.2,5.2,4.8,12,7.5,20.2,1.9,5.7,4.3,12.7,6.5,21.9,1.7,6.9,3.5,16.3,4.8,27.5l-140.5,8.6c0-15.1,1.7-34.9,5.5-49.5h0ZM430.8,756.8c-14.1,2.4-28.7,3.7-43.5,3.7-31.9,0-62.4-5.8-90.6-16.2-.3-1.6-.7-3.2-1-4.8-.6-3.5-1.1-7-1.6-10.5l140.1-5.7c-.2,11.1-1.3,22.3-3.3,33.5h0ZM471.6,746.4c3.1-20,4.9-50.8-5.2-85.5-11.3-38.8-31.8-63.9-44.9-79.5-17.7-21.1-35.6-35.5-48.7-44.8.5-.7,1.1-1.4,1.7-2.1,53.7-67.6,138.4-141.5,181.4-233,56.2,47.7,91.8,118.9,91.8,198.4,0,114.3-73.6,211.4-176,246.5h0Z"/>
    <g>
      <path class="st0" d="M342.2,458.5c-11.2,2.5-22.2-4.3-24.7-15.2-2.5-10.9,4.7-21.8,15.8-24.3,11.2-2.6,22.3,4.2,24.7,15.2,2.5,10.9-4.5,21.7-15.8,24.3Z"/>
      <path class="st0" d="M406.2,402.6c-20.2,4.5-40.2-7.7-44.7-27.3-4.3-19.6,8.4-39.3,28.8-43.9,20.2-4.5,40.2,7.7,44.6,27.3,4.4,19.7-8.4,39.3-28.7,43.9h0Z"/>
    </g>
  </g>
  <g>
    <g class="st1">
      <g class="st1">
        <path class="st0" d="M753.7,498.7c-5.6-3.7-9.3-8.5-11.1-14.6-1.8-6.1-2.8-13.6-2.8-22.7v-103.1c0-1.7.4-2.8,1.1-3.3.7-.5,2.5-.8,5.4-1,2.9-.1,8.9-.2,17.9-.2v108.4c0,7.3.9,12.6,2.8,15.7,1.8,3.1,5.4,4.7,10.8,4.7s9.4-.8,12.5-2.5v-121.8c0-1.7.4-2.8,1.1-3.3.7-.5,2.5-.8,5.3-1,2.8-.1,8.7-.2,17.6-.2v142.3c-3.1,2-7.9,3.8-14.4,5.5-6.5,1.7-13.8,2.5-22,2.5s-18.5-1.8-24-5.5Z"/>
      </g>
      <g class="st1">
        <path class="st0" d="M885.2,355.1c.8-.5,3.1-.8,6.9-1,3.8-.1,9-.2,15.5-.2v144c0,1.3-.4,2.3-1.1,3.1-.7.8-1.8,1.2-3.2,1.2h-18.2l-22.4-56.7c-3.7-9.5-7.9-25.1-12.7-47,1.8,18.1,2.8,34.3,2.8,48.7v50.8c0,1.6-.4,2.6-1.1,3.1-.7.5-3,.8-6.9,1-3.9.1-9.1.2-15.6.2v-144c0-2.8,1.4-4.2,4.2-4.2h18.6l22.2,55.7c3.5,8.9,7.7,23.9,12.5,44.9-1.8-17.1-2.8-32.7-2.8-47v-49.3c0-1.6.4-2.6,1.2-3.1Z"/>
        <path class="st0" d="M924.4,364.3c0-3.8.4-6.4,1.2-7.6.8-1.3,2.6-2,5.4-2.3,2.8-.3,8.6-.4,17.4-.4v144c0,1.6-.4,2.6-1.1,3.1-.7.5-3,.8-7,1-4,.1-9.2.2-15.9.2v-137.9Z"/>
        <path class="st0" d="M985.2,490.9c-3.1-14-7.5-36.7-13.2-68.1-5.7-31.4-9.5-52.3-11.3-62.8-.3-1.7-.4-2.8-.4-3.2,0-1.1.4-1.9,1.3-2.3.8-.4,2.3-.6,4.4-.6h19.7l10.8,69.5c2.1,13.7,4.7,33.5,7.8,59.5,2-22.3,4.3-42.1,7-59.5l9.3-63.1c.3-2.4.8-4.1,1.6-5,.8-.9,2.2-1.4,4.1-1.4h20.8l-28.2,148.2c-6.9.8-13.8,1.3-20.5,1.3s-11.3-4.2-13.1-12.5Z"/>
        <path class="st0" d="M1082.2,481.2h30.1c0,5.6,0,10.2-.2,13.6-.1,3.4-.5,5.5-1,6.2-.5.8-1.4,1.2-2.9,1.2h-49.5v-144c0-.7.3-1.6.8-2.6.6-1.1,1.7-1.6,3.4-1.6h50.8c0,5.4,0,9.7-.2,13.1-.1,3.4-.5,5.5-1.1,6.5-.6.9-1.6,1.4-3,1.4h-27.3v36.2h25.8c0,5.2,0,9.6-.2,13-.1,3.5-.5,5.8-1,6.9-.5,1.1-1.4,1.7-2.6,1.7h-22v48.5Z"/>
        <path class="st0" d="M1189.4,461.3c3.6,9.9,5.6,22,6,36.2,0,1.6-.2,2.7-.7,3.4-.5.7-1.6,1.2-3.3,1.5-1.7.3-4.4.4-8.3.4s-8.4-.2-13.8-.6c-.3-14.7-1.8-26.6-4.4-35.9-2.7-9.2-5.8-16.4-9.3-21.5-.8.1-2.1.2-3.8.2h-1.7v52.9c0,1.6-.4,2.6-1.2,3.1-.8.5-3.1.8-6.9,1-3.8.1-9,.2-15.5.2v-144c0-.7.3-1.6.8-2.6.6-1.1,1.7-1.6,3.4-1.6h19.9c9.5,0,17.2,1.3,23.1,3.8,5.9,2.5,10.4,7,13.6,13.3,3.1,6.4,4.7,15.2,4.7,26.5,0,18.8-4.9,32-14.8,39.8,4.5,6.1,8.6,14,12.2,23.9ZM1150.2,423.1h4.4c3.7,0,6.4-1.9,8.3-5.7,1.8-3.8,2.8-10.9,2.8-21.2s-.7-13.2-2.2-16.7c-1.5-3.5-3.9-5.3-7.3-5.3h-5.9v48.9Z"/>
        <path class="st0" d="M1212.3,500.1c-4.7-2.8-7.1-6.1-7.1-10.1s.5-5.3,1.4-8.4c.9-3,2.2-5.9,3.9-8.6,2.3,2.1,5.2,3.8,8.8,5.1,3.6,1.3,7.2,1.9,10.9,1.9,5.6,0,9.7-1.4,12.1-4.2,2.4-2.8,3.6-6.9,3.6-12.3s-.7-7.1-2-10.4c-1.3-3.2-3.8-7.3-7.5-12.3l-19.3-25.6c-4.7-6.1-7.8-11.5-9.5-16.3-1.7-4.8-2.5-9.7-2.5-14.8,0-9.9,3.2-17.8,9.7-23.6,6.5-5.9,15.8-8.8,28-8.8s17.7,1,22.1,3c4.4,2,6.7,4.9,6.7,8.9s-1.8,9-5.5,13.1c-1.3-1-3.7-1.9-7.4-2.9-3.7-.9-7.3-1.4-11-1.4-5.4,0-9.5.9-12.5,2.8-3,1.8-4.4,4.6-4.4,8.3s.6,6.2,1.7,8.9c1.1,2.7,3.2,6,6.1,10l20.3,26c4.9,6.4,8.3,12.1,10.1,17.3,1.8,5.2,2.6,10.9,2.6,17.3,0,12.3-2.9,22.2-8.7,29.9-5.8,7.6-15.7,11.4-29.9,11.4s-15.9-1.4-20.6-4.1Z"/>
        <path class="st0" d="M1285.2,364.3c0-3.8.4-6.4,1.2-7.6.8-1.3,2.6-2,5.4-2.3,2.8-.3,8.6-.4,17.4-.4v144c0,1.6-.4,2.6-1.1,3.1-.7.5-3,.8-7,1-4,.1-9.2.2-15.9.2v-137.9Z"/>
        <path class="st0" d="M1398.3,353.9v17.8c0,1.7-.3,2.8-1,3.4-.6.6-1.7.8-3.3.8h-22.7v122c0,1.6-.4,2.6-1.2,3.1-.8.5-3.1.8-6.9,1-3.8.1-9,.2-15.5.2v-126.2h-25.8v-17.8c0-2.8,1.4-4.2,4.2-4.2h72Z"/>
        <path class="st0" d="M1434.5,481.2h30.1c0,5.6,0,10.2-.2,13.6-.1,3.4-.5,5.5-1,6.2-.5.8-1.4,1.2-2.9,1.2h-49.5v-144c0-.7.3-1.6.8-2.6.6-1.1,1.7-1.6,3.4-1.6h50.8c0,5.4,0,9.7-.2,13.1-.1,3.4-.5,5.5-1.1,6.5-.6.9-1.6,1.4-3,1.4h-27.3v36.2h25.8c0,5.2,0,9.6-.2,13-.1,3.5-.5,5.8-1,6.9-.5,1.1-1.4,1.7-2.6,1.7h-22v48.5ZM1424.7,340.7c-1.3-1.9-2.4-3.9-3.1-5.9-.7-2-1.1-3.4-1.3-4.1,2.3-3.1,5.4-6.6,9.4-10.5,4-3.9,7.9-7.3,11.5-10.2,3.7-2.9,5.9-4.3,6.8-4.3,2.4,0,4.6,1.8,6.7,5.4,2,3.6,3.4,7.6,4.1,12-2.4,2.8-7.6,6.9-15.6,12.3-8,5.4-12.6,8.1-13.9,8.3-1.8,0-3.4-1-4.8-2.9Z"/>
        <path class="st0" d="M1536.6,481.2h30.1c0,5.6,0,10.2-.2,13.6-.1,3.4-.5,5.5-1,6.2-.5.8-1.4,1.2-2.9,1.2h-49.5v-144c0-.7.3-1.6.8-2.6.6-1.1,1.7-1.6,3.4-1.6h50.8c0,5.4,0,9.7-.2,13.1-.1,3.4-.5,5.5-1.1,6.5-.6.9-1.6,1.4-3,1.4h-27.3v36.2h25.8c0,5.2,0,9.6-.2,13-.1,3.5-.5,5.8-1,6.9-.5,1.1-1.4,1.7-2.6,1.7h-22v48.5ZM1526.7,340.7c-1.3-1.9-2.4-3.9-3.1-5.9-.7-2-1.1-3.4-1.3-4.1,2.3-3.1,5.4-6.6,9.4-10.5,4-3.9,7.9-7.3,11.5-10.2,3.7-2.9,5.9-4.3,6.8-4.3,2.4,0,4.6,1.8,6.7,5.4,2,3.6,3.4,7.6,4.1,12-2.4,2.8-7.6,6.9-15.6,12.3-8,5.4-12.6,8.1-13.9,8.3-1.8,0-3.4-1-4.8-2.9Z"/>
        <path class="st0" d="M1600.7,490.9c-3.1-14-7.5-36.7-13.2-68.1-5.7-31.4-9.5-52.3-11.3-62.8-.3-1.7-.4-2.8-.4-3.2,0-1.1.4-1.9,1.3-2.3s2.3-.6,4.4-.6h19.7l10.8,69.5c2.1,13.7,4.7,33.5,7.8,59.5,2-22.3,4.3-42.1,7-59.5l9.3-63.1c.3-2.4.8-4.1,1.6-5,.8-.9,2.2-1.4,4.1-1.4h20.8l-28.2,148.2c-6.9.8-13.8,1.3-20.5,1.3s-11.3-4.2-13.1-12.5Z"/>
      </g>
      <g class="st1">
        <path class="st0" d="M1737,461.3c3.6,9.9,5.6,22,6,36.2,0,1.6-.2,2.7-.7,3.4-.5.7-1.6,1.2-3.3,1.5-1.7.3-4.4.4-8.3.4s-8.4-.2-13.8-.6c-.3-14.7-1.8-26.6-4.4-35.9-2.7-9.2-5.8-16.4-9.3-21.5-.8.1-2.1.2-3.8.2h-1.7v52.9c0,1.6-.4,2.6-1.2,3.1-.8.5-3.1.8-6.9,1-3.8.1-9,.2-15.5.2v-144c0-.7.3-1.6.8-2.6.6-1.1,1.7-1.6,3.4-1.6h19.9c9.5,0,17.2,1.3,23.1,3.8,5.9,2.5,10.4,7,13.6,13.3,3.1,6.4,4.7,15.2,4.7,26.5,0,18.8-4.9,32-14.8,39.8,4.5,6.1,8.6,14,12.2,23.9ZM1697.7,423.1h4.4c3.7,0,6.4-1.9,8.3-5.7,1.8-3.8,2.8-10.9,2.8-21.2s-.7-13.2-2.2-16.7c-1.5-3.5-3.9-5.3-7.3-5.3h-5.9v48.9Z"/>
      </g>
      <g class="st1">
        <path class="st0" d="M1796.4,497.9c0,1.6-.3,2.6-1,3.1-.6.5-2.9.8-6.8,1-3.9.1-9.1.2-15.8.2v-61l-26.5-83.6c-.4-1.3-.2-2.1.5-2.5.8-.4,3.4-.7,7.9-.8,4.5-.1,10.7-.2,18.4-.2l6.1,27.7c1.1,4.9,2.3,11.7,3.6,20.3,1.3,8.6,2.1,15.5,2.5,20.5.4-4.9,1.3-11.8,2.6-20.4,1.3-8.7,2.6-15.6,3.7-20.6l5.1-23.3c.4-1.6,1.1-2.6,2-3.1.9-.5,3.3-.8,7.2-1,3.9-.1,9.2-.2,16-.2l-25.8,86.4v57.6Z"/>
      </g>
    </g>
    <g class="st1">
      <g class="st1">
        <path class="st0" d="M790.9,573.9c0,7.9-2.5,13.9-7.4,18.1-4.9,4.2-11.9,6.3-21,6.3h-6.7v26.1h-15.6v-73.3h23.4c8.9,0,15.7,1.9,20.3,5.7,4.6,3.8,6.9,9.5,6.9,17.1ZM755.8,585.5h5.1c4.8,0,8.4-.9,10.7-2.8,2.4-1.9,3.6-4.6,3.6-8.3s-1-6.3-3-8.1c-2-1.7-5.1-2.6-9.4-2.6h-7.1v21.8Z"/>
        <path class="st0" d="M851.6,624.4l-5.3-17.5h-26.7l-5.3,17.5h-16.8l25.9-73.6h19l26,73.6h-16.8ZM842.5,593.9c-4.9-15.8-7.7-24.8-8.3-26.8-.6-2.1-1.1-3.7-1.3-4.9-1.1,4.3-4.3,14.9-9.5,31.8h19.1Z"/>
        <path class="st0" d="M895.1,596.2v28.1h-15.6v-73.3h21.4c10,0,17.3,1.8,22.1,5.4,4.8,3.6,7.2,9.1,7.2,16.5s-1.2,8.2-3.6,11.5c-2.4,3.4-5.7,6-10.1,7.9,11,16.5,18.2,27.1,21.6,32h-17.3l-17.5-28.1h-8.3ZM895.1,583.6h5c4.9,0,8.5-.8,10.9-2.5,2.3-1.6,3.5-4.2,3.5-7.7s-1.2-6-3.6-7.4c-2.4-1.5-6.1-2.2-11.1-2.2h-4.7v19.8Z"/>
        <path class="st0" d="M949.3,624.4v-73.3h15.6v73.3h-15.6Z"/>
        <path class="st0" d="M1028.5,604c0,6.6-2.4,11.8-7.1,15.7s-11.4,5.7-19.9,5.7-14.7-1.5-20.8-4.4v-14.4c4.9,2.2,9.1,3.8,12.6,4.7,3.4.9,6.6,1.4,9.4,1.4s6-.7,7.9-2c1.8-1.3,2.7-3.2,2.7-5.8s-.4-2.7-1.2-3.8-2-2.2-3.5-3.2c-1.6-1-4.7-2.7-9.5-5-4.5-2.1-7.8-4.1-10.1-6.1-2.2-1.9-4-4.2-5.4-6.8-1.3-2.6-2-5.6-2-9,0-6.5,2.2-11.6,6.6-15.3,4.4-3.7,10.5-5.6,18.2-5.6s7.4.5,10.9,1.4c3.5.9,7.1,2.2,10.9,3.8l-5,12.1c-3.9-1.6-7.1-2.7-9.7-3.4-2.6-.6-5.1-1-7.5-1s-5.2.7-6.8,2.1c-1.6,1.4-2.4,3.2-2.4,5.4s.3,2.6,1,3.6c.6,1,1.6,2,3,3,1.4,1,4.7,2.7,9.9,5.1,6.9,3.3,11.6,6.6,14.1,9.9,2.5,3.3,3.8,7.3,3.8,12.1Z"/>
        <path class="st0" d="M1037.6,603.1v-12.5h26.9v12.5h-26.9Z"/>
        <path class="st0" d="M1122.1,604c0,6.6-2.4,11.8-7.1,15.7s-11.4,5.7-19.9,5.7-14.7-1.5-20.8-4.4v-14.4c4.9,2.2,9.1,3.8,12.6,4.7,3.4.9,6.6,1.4,9.4,1.4s6-.7,7.9-2c1.8-1.3,2.7-3.2,2.7-5.8s-.4-2.7-1.2-3.8-2-2.2-3.5-3.2c-1.6-1-4.7-2.7-9.5-5-4.5-2.1-7.8-4.1-10.1-6.1-2.2-1.9-4-4.2-5.4-6.8-1.3-2.6-2-5.6-2-9,0-6.5,2.2-11.6,6.6-15.3,4.4-3.7,10.5-5.6,18.2-5.6s7.4.5,10.9,1.4c3.5.9,7.1,2.2,10.9,3.8l-5,12.1c-3.9-1.6-7.1-2.7-9.7-3.4-2.6-.6-5.1-1-7.5-1s-5.2.7-6.8,2.1c-1.6,1.4-2.4,3.2-2.4,5.4s.3,2.6,1,3.6c.6,1,1.6,2,3,3,1.4,1,4.7,2.7,9.9,5.1,6.9,3.3,11.6,6.6,14.1,9.9,2.5,3.3,3.8,7.3,3.8,12.1Z"/>
        <path class="st0" d="M1182.2,624.4l-5.3-17.5h-26.7l-5.3,17.5h-16.8l25.9-73.6h19l26,73.6h-16.8ZM1173.2,593.9c-4.9-15.8-7.7-24.8-8.3-26.8-.6-2.1-1.1-3.7-1.3-4.9-1.1,4.3-4.3,14.9-9.5,31.8h19.1Z"/>
        <path class="st0" d="M1241.3,562.9c-5.9,0-10.4,2.2-13.6,6.6-3.2,4.4-4.8,10.5-4.8,18.4,0,16.4,6.1,24.5,18.4,24.5s11.4-1.3,18.7-3.9v13c-6,2.5-12.7,3.8-20.2,3.8-10.7,0-18.8-3.2-24.5-9.7-5.7-6.5-8.5-15.8-8.5-27.9s1.4-14.3,4.2-20c2.8-5.7,6.8-10.1,12-13.2,5.2-3.1,11.3-4.6,18.3-4.6s14.3,1.7,21.5,5.2l-5,12.6c-2.7-1.3-5.5-2.4-8.3-3.4-2.8-1-5.5-1.5-8.2-1.5Z"/>
        <path class="st0" d="M1277.6,624.4v-73.3h15.6v60.5h29.7v12.8h-45.3Z"/>
        <path class="st0" d="M1382.5,624.4l-5.3-17.5h-26.7l-5.3,17.5h-16.8l25.9-73.6h19l26,73.6h-16.8ZM1373.5,593.9c-4.9-15.8-7.7-24.8-8.3-26.8-.6-2.1-1.1-3.7-1.3-4.9-1.1,4.3-4.3,14.9-9.5,31.8h19.1Z"/>
        <path class="st0" d="M1433.2,581.2l15.3-30.2h16.8l-24.3,44.8v28.5h-15.5v-28l-24.3-45.3h16.9l15.2,30.2Z"/>
      </g>
    </g>
  </g>
</svg>